<svg xmlns="http://www.w3.org/2000/svg" width="512" height="512" viewBox="0 0 512 512" fill="none">
  <rect width="512" height="512" rx="128" fill="#3B82F6"/>
  <path d="M256 106C172.8 106 106 172.8 106 256C106 339.2 172.8 406 256 406C339.2 406 406 339.2 406 256C406 172.8 339.2 106 256 106ZM256 376C189.6 376 136 322.4 136 256C136 189.6 189.6 136 256 136C322.4 136 376 189.6 376 256C376 322.4 322.4 376 256 376Z" fill="white"/>
  <path d="M316 196C316 218.1 298.1 236 276 236C253.9 236 236 218.1 236 196C236 173.9 253.9 156 276 156C298.1 156 316 173.9 316 196Z" fill="#84CC16"/>
  <path d="M276 246C235.2 246 196 267.6 196 316V346H356V316C356 267.6 316.8 246 276 246Z" fill="#84CC16"/>
  <path d="M196 196C196 218.1 178.1 236 156 236C133.9 236 116 218.1 116 196C116 173.9 133.9 156 156 156C178.1 156 196 173.9 196 196Z" fill="white"/>
  <path d="M156 246C115.2 246 76 267.6 76 316V346H236V316C236 267.6 196.8 246 156 246Z" fill="white"/>
</svg> 